<?xml version="1.0" encoding="UTF-8"?>
<svg width="200px" height="53px" viewBox="0 0 200 53" version="1.1" xmlns="http://www.w3.org/2000/svg" xmlns:xlink="http://www.w3.org/1999/xlink">
    <!-- Generator: Sketch 40.3 (33839) - http://www.bohemiancoding.com/sketch -->
    <title>apple store</title>
    <desc>Created with Sketch.</desc>
    <defs></defs>
    <g id="modulos-que-están-ok" stroke="none" stroke-width="1" fill="none" fill-rule="evenodd">
        <g id="footer-europa" transform="translate(-10.000000, -1659.000000)">
            <g id="Group-10" transform="translate(0.000000, 1251.000000)">
                <g id="Group-15">
                    <g id="Group-2" transform="translate(0.000000, 294.000000)">
                        <g id="descarga-app" transform="translate(10.000000, 19.000000)">
                            <g id="badges-stores" transform="translate(0.000000, 32.000000)">
                                <g id="apple-store" transform="translate(0.000000, 63.000000)">
                                    <g id="Group">
                                        <polygon id="bg" fill="#000000" points="0 0 199.974026 0 199.974026 52.2259841 0 52.2259841"></polygon>
                                        <g id="Group-26" transform="translate(8.000000, 5.361868)" fill="#FFFFFF">
                                            <path d="M53.9304596,35.9703185 L57.2007171,35.9703185 L50.041876,16.0365828 L46.7303968,16.0365828 L39.5715557,35.9703185 L42.7318886,35.9703185 L44.5593855,30.679521 L52.1167033,30.679521 L53.9304596,35.9703185 Z M48.2281198,19.6558751 L48.4617096,19.6558751 L51.3334904,28.0824716 L45.3425984,28.0824716 L48.2281198,19.6558751 Z M65.8718593,20.678118 C63.8382538,20.678118 62.0794599,21.7003608 61.1725817,23.4133083 L60.9527325,23.4133083 L60.9527325,20.9267716 L58.1084328,20.9267716 L58.1084328,40.8466932 L61.0626571,40.8466932 L61.0626571,33.6909932 L61.2962469,33.6909932 C62.0794599,35.2796139 63.7695509,36.2189722 65.8993405,36.2189722 C69.6779994,36.2189722 72.0826006,33.2213141 72.0826006,28.441638 C72.0826006,23.661962 69.6779994,20.678118 65.8718593,20.678118 L65.8718593,20.678118 Z M65.0336841,33.5528523 C62.5603801,33.5528523 61.0076948,31.5912511 61.0076948,28.4554521 C61.0076948,25.305839 62.5603801,23.3442378 65.0474247,23.3442378 C67.5482099,23.3442378 69.0459328,25.2643967 69.0459328,28.441638 C69.0459328,31.6326934 67.5482099,33.5528523 65.0336841,33.5528523 L65.0336841,33.5528523 Z M81.1934413,20.678118 C79.1598357,20.678118 77.4010418,21.7003608 76.4941636,23.4133083 L76.2743144,23.4133083 L76.2743144,20.9267716 L73.4300148,20.9267716 L73.4300148,40.8466932 L76.384239,40.8466932 L76.384239,33.6909932 L76.6178288,33.6909932 C77.4010418,35.2796139 79.0911328,36.2189722 81.2209224,36.2189722 C84.9995813,36.2189722 87.4041825,33.2213141 87.4041825,28.441638 C87.4041825,23.661962 84.9995813,20.678118 81.1934413,20.678118 L81.1934413,20.678118 Z M80.355266,33.5528523 C77.881962,33.5528523 76.3292767,31.5912511 76.3292767,28.4554521 C76.3292767,25.305839 77.881962,23.3442378 80.3690066,23.3442378 C82.8697918,23.3442378 84.3675148,25.2643967 84.3675148,28.441638 C84.3675148,31.6326934 82.8697918,33.5528523 80.355266,33.5528523 L80.355266,33.5528523 Z M93.6578206,30.6104506 C93.8776698,34.1744865 96.831894,36.4538118 101.228879,36.4538118 C105.928157,36.4538118 108.86864,34.0639737 108.86864,30.2512842 C108.86864,27.2536261 107.19229,25.5959349 103.125079,24.6427625 L100.940327,24.1040129 C98.3570982,23.4961929 97.3128143,22.6811614 97.3128143,21.2583098 C97.3128143,19.4624778 98.9342025,18.2882799 101.366285,18.2882799 C103.674702,18.2882799 105.268609,19.4348496 105.557161,21.2721239 L108.552607,21.2721239 C108.373979,17.9152994 105.433496,15.5530896 101.407506,15.5530896 C97.0792245,15.5530896 94.1937031,17.9152994 94.1937031,21.4655212 C94.1937031,24.3941089 95.8288319,26.1346845 99.4151227,26.9773442 L101.97087,27.5989784 C104.595321,28.2206125 105.749529,29.1323427 105.749529,30.6518928 C105.749529,32.4200967 103.935773,33.7048073 101.462469,33.7048073 C98.8105373,33.7048073 96.9692998,32.5029813 96.7082288,30.6104506 L93.6578206,30.6104506 Z M111.411485,17.2798512 L111.411485,20.9958421 L108.951921,20.9958421 L108.951921,23.4961929 L111.411485,23.4961929 L111.411485,31.9918598 C111.411485,34.8928193 112.71684,36.0532031 116.000838,36.0532031 C116.577942,36.0532031 117.113825,35.9841326 117.581004,35.9012481 L117.581004,33.4285255 C117.168787,33.4699677 116.935197,33.4975959 116.481758,33.4975959 C115.011516,33.4975959 114.365709,32.8068913 114.365709,31.2320847 L114.365709,23.4961929 L117.71841,23.4961929 L117.71841,20.9958421 L114.365709,20.9958421 L114.365709,17.2798512 L111.411485,17.2798512 Z M125.042976,33.6219228 C122.473488,33.6219228 121.030727,31.7293921 121.030727,28.441638 C121.030727,25.1815122 122.473488,23.2751674 125.042976,23.2751674 C127.598723,23.2751674 129.055224,25.1815122 129.055224,28.441638 C129.055224,31.715578 127.598723,33.6219228 125.042976,33.6219228 L125.042976,33.6219228 Z M125.042976,36.2604145 C129.412479,36.2604145 132.091892,33.3180127 132.091892,28.441638 C132.091892,23.5928915 129.398739,20.6366757 125.042976,20.6366757 C120.673472,20.6366757 117.980319,23.5928915 117.980319,28.441638 C117.980319,33.3180127 120.659731,36.2604145 125.042976,36.2604145 L125.042976,36.2604145 Z M133.439306,35.9703185 L136.393531,35.9703185 L136.393531,27.0878569 C136.393531,24.9743008 137.973697,23.5514492 140.199671,23.5514492 C140.694331,23.5514492 141.60121,23.6481479 141.834799,23.7310324 L141.834799,20.8024448 C141.518766,20.7195602 140.955402,20.678118 140.529444,20.678118 C138.578282,20.678118 136.929413,21.7556172 136.503455,23.2337251 L136.283606,23.2337251 L136.283606,20.9267716 L133.439306,20.9267716 L133.439306,35.9703185 Z M148.486077,23.1646546 C150.670829,23.1646546 152.099849,24.6980189 152.168551,27.0602288 L144.611234,27.0602288 C144.776121,24.711833 146.301325,23.1646546 148.486077,23.1646546 L148.486077,23.1646546 Z M152.154811,31.9089753 C151.605188,33.0831732 150.382276,33.7324355 148.596001,33.7324355 C146.232622,33.7324355 144.707418,32.0609303 144.611234,29.4224386 L144.611234,29.2566695 L155.177738,29.2566695 L155.177738,28.2206125 C155.177738,23.4961929 152.663212,20.6366757 148.499817,20.6366757 C144.28146,20.6366757 141.602047,23.6895901 141.602047,28.4968944 C141.602047,33.3041986 144.226497,36.2604145 148.513558,36.2604145 C151.934962,36.2604145 154.325822,34.6027233 154.999111,31.9089753 L152.154811,31.9089753 Z" id="App-Store"></path>
                                            <path d="M42.3400858,0.477046666 L42.3400858,9.96930176 L45.7490578,9.96930176 C48.5626047,9.96930176 50.1918446,8.22609483 50.1918446,5.19357259 C50.1918446,2.20709732 48.5495184,0.477046666 45.7490578,0.477046666 L42.3400858,0.477046666 Z M43.8057475,1.8189871 L45.5854795,1.8189871 C47.541876,1.8189871 48.7000105,3.06883357 48.7000105,5.213307 C48.7000105,7.39067113 47.5615054,8.62736133 45.5854795,8.62736133 L43.8057475,8.62736133 L43.8057475,1.8189871 Z M55.3491415,8.85101807 C54.1255758,8.85101807 53.4385469,7.94981298 53.4385469,6.38421581 C53.4385469,4.83177492 54.1255758,3.92399169 55.3491415,3.92399169 C56.5661642,3.92399169 57.2597362,4.83177492 57.2597362,6.38421581 C57.2597362,7.94323484 56.5661642,8.85101807 55.3491415,8.85101807 L55.3491415,8.85101807 Z M55.3491415,10.1074427 C57.4298576,10.1074427 58.7057684,8.706299 58.7057684,6.38421581 C58.7057684,4.0752889 57.4233145,2.66756707 55.3491415,2.66756707 C53.2684255,2.66756707 51.9859715,4.0752889 51.9859715,6.38421581 C51.9859715,8.706299 53.2618823,10.1074427 55.3491415,10.1074427 L55.3491415,10.1074427 Z M69.732255,2.805708 L68.3254816,2.805708 L67.0561139,8.27214181 L66.9448807,8.27214181 L65.479219,2.805708 L64.1313338,2.805708 L62.6656721,8.27214181 L62.560982,8.27214181 L61.2850712,2.805708 L59.8586683,2.805708 L61.821608,9.96930176 L63.2676403,9.96930176 L64.7333019,4.693634 L64.8445352,4.693634 L66.3167399,9.96930176 L67.7758585,9.96930176 L69.732255,2.805708 Z M71.5198388,9.96930176 L72.9266122,9.96930176 L72.9266122,5.77902699 C72.9266122,4.6607433 73.6201843,3.96346053 74.7521461,3.96346053 C75.7990473,3.96346053 76.3094116,4.53575865 76.3094116,5.68693304 L76.3094116,9.96930176 L77.7161851,9.96930176 L77.7161851,5.33171351 C77.7161851,3.62797542 76.819776,2.66756707 75.2297948,2.66756707 C74.1567211,2.66756707 73.3257433,3.14777125 72.9789573,3.94372611 L72.8742672,3.94372611 L72.8742672,2.805708 L71.5198388,2.805708 L71.5198388,9.96930176 Z M80.0926508,9.96930176 L81.4994242,9.96930176 L81.4994242,0.00999877183 L80.0926508,0.00999877183 L80.0926508,9.96930176 Z M86.9511621,8.85101807 C85.7275963,8.85101807 85.0405674,7.94981298 85.0405674,6.38421581 C85.0405674,4.83177492 85.7275963,3.92399169 86.9511621,3.92399169 C88.1681847,3.92399169 88.8617567,4.83177492 88.8617567,6.38421581 C88.8617567,7.94323484 88.1681847,8.85101807 86.9511621,8.85101807 L86.9511621,8.85101807 Z M86.9511621,10.1074427 C89.0318781,10.1074427 90.3077889,8.706299 90.3077889,6.38421581 C90.3077889,4.0752889 89.025335,2.66756707 86.9511621,2.66756707 C84.870446,2.66756707 83.587992,4.0752889 83.587992,6.38421581 C83.587992,8.706299 84.8639028,10.1074427 86.9511621,10.1074427 L86.9511621,10.1074427 Z M94.6602806,8.89706505 C93.8947341,8.89706505 93.3385678,8.5221111 93.3385678,7.87745345 C93.3385678,7.24595207 93.7835008,6.91046696 94.7649707,6.84468557 L96.5054439,6.7328572 L96.5054439,7.33146788 C96.5054439,8.21951669 95.720268,8.89706505 94.6602806,8.89706505 L94.6602806,8.89706505 Z M94.3004083,10.0877083 C95.2360762,10.0877083 96.014709,9.67986363 96.4400126,8.96284644 L96.5512458,8.96284644 L96.5512458,9.96930176 L97.9056742,9.96930176 L97.9056742,5.07516608 C97.9056742,3.56219403 96.8980318,2.66756707 95.1117567,2.66756707 C93.495603,2.66756707 92.3440117,3.4569438 92.2000628,4.68705586 L93.5610343,4.68705586 C93.7180695,4.18053913 94.2611495,3.89110099 95.0463254,3.89110099 C96.0081658,3.89110099 96.5054439,4.31868005 96.5054439,5.07516608 L96.5054439,5.69351118 L94.5752198,5.80533955 C92.8805486,5.91058978 91.9252513,6.65391952 91.9252513,7.94323484 C91.9252513,9.25228457 92.9263505,10.0877083 94.3004083,10.0877083 L94.3004083,10.0877083 Z M102.847048,10.0877083 C103.828518,10.0877083 104.659495,9.62066038 105.084799,8.83786179 L105.196032,8.83786179 L105.196032,9.96930176 L106.543918,9.96930176 L106.543918,0.00999877183 L105.137144,0.00999877183 L105.137144,3.94372611 L105.032454,3.94372611 C104.646409,3.15434939 103.821974,2.68730149 102.847048,2.68730149 C101.047686,2.68730149 99.8895519,4.12133587 99.8895519,6.38421581 C99.8895519,8.65367389 101.0346,10.0877083 102.847048,10.0877083 L102.847048,10.0877083 Z M103.246179,3.95688239 C104.423943,3.95688239 105.163317,4.89755632 105.163317,6.39079395 C105.163317,7.89060972 104.430486,8.81812737 103.246179,8.81812737 C102.055329,8.81812737 101.342127,7.903766 101.342127,6.38421581 C101.342127,4.8778219 102.061872,3.95688239 103.246179,3.95688239 L103.246179,3.95688239 Z M115.994818,8.85101807 C114.771252,8.85101807 114.084223,7.94981298 114.084223,6.38421581 C114.084223,4.83177492 114.771252,3.92399169 115.994818,3.92399169 C117.21184,3.92399169 117.905412,4.83177492 117.905412,6.38421581 C117.905412,7.94323484 117.21184,8.85101807 115.994818,8.85101807 L115.994818,8.85101807 Z M115.994818,10.1074427 C118.075534,10.1074427 119.351445,8.706299 119.351445,6.38421581 C119.351445,4.0752889 118.068991,2.66756707 115.994818,2.66756707 C113.914102,2.66756707 112.631648,4.0752889 112.631648,6.38421581 C112.631648,8.706299 113.907559,10.1074427 115.994818,10.1074427 L115.994818,10.1074427 Z M121.374581,9.96930176 L122.781355,9.96930176 L122.781355,5.77902699 C122.781355,4.6607433 123.474927,3.96346053 124.606889,3.96346053 C125.65379,3.96346053 126.164154,4.53575865 126.164154,5.68693304 L126.164154,9.96930176 L127.570928,9.96930176 L127.570928,5.33171351 C127.570928,3.62797542 126.674518,2.66756707 125.084537,2.66756707 C124.011464,2.66756707 123.180486,3.14777125 122.8337,3.94372611 L122.72901,3.94372611 L122.72901,2.805708 L121.374581,2.805708 L121.374581,9.96930176 Z M134.378402,1.06907921 L134.378402,2.8385987 L133.207182,2.8385987 L133.207182,4.02924192 L134.378402,4.02924192 L134.378402,8.07479763 C134.378402,9.45620689 135,10.0087706 136.563809,10.0087706 C136.83862,10.0087706 137.093802,9.9758799 137.316269,9.93641106 L137.316269,8.75892412 C137.119975,8.77865854 137.008742,8.79181482 136.792818,8.79181482 C136.092703,8.79181482 135.785176,8.46290785 135.785176,7.71299996 L135.785176,4.02924192 L137.3817,4.02924192 L137.3817,2.8385987 L135.785176,2.8385987 L135.785176,1.06907921 L134.378402,1.06907921 Z M139.385207,9.96930176 L140.791981,9.96930176 L140.791981,5.78560513 C140.791981,4.70021213 141.505182,3.97003867 142.656773,3.97003867 C143.716761,3.97003867 144.246755,4.54891493 144.246755,5.69351118 L144.246755,9.96930176 L145.653528,9.96930176 L145.653528,5.34486979 C145.653528,3.6411317 144.73749,2.67414521 143.134422,2.67414521 C142.061348,2.67414521 141.236914,3.15434939 140.890128,3.95688239 L140.778894,3.95688239 L140.778894,0.00999877183 L139.385207,0.00999877183 L139.385207,9.96930176 Z M150.895886,3.87136658 C151.936244,3.87136658 152.616729,4.60154004 152.649445,5.72640188 L149.050722,5.72640188 C149.12924,4.60811818 149.855528,3.87136658 150.895886,3.87136658 L150.895886,3.87136658 Z M152.642902,8.03532879 C152.381177,8.59447064 151.798838,8.90364319 150.948231,8.90364319 C149.822812,8.90364319 149.096524,8.10768832 149.050722,6.85126371 L149.050722,6.77232603 L154.082391,6.77232603 L154.082391,6.27896558 C154.082391,4.02924192 152.884998,2.66756707 150.902429,2.66756707 C148.893687,2.66756707 147.617776,4.12133587 147.617776,6.41052837 C147.617776,8.69972087 148.867515,10.1074427 150.908972,10.1074427 C152.538212,10.1074427 153.676717,9.31806597 153.99733,8.03532879 L152.642902,8.03532879 Z" id="Download-on-the"></path>
                                            <g id="logo_apple" transform="translate(0.000000, 0.404161)">
                                                <path d="M25.9083104,20.2827101 C25.8651867,15.4643887 29.8325678,13.1202596 30.0139848,13.0111261 C27.7670909,9.71768454 24.2844797,9.26769547 23.0606587,9.23181595 C20.1356817,8.92235503 17.2984391,10.9914077 15.8084407,10.9914077 C14.2887017,10.9914077 11.9942231,9.26171555 9.52130147,9.31254488 C6.33906925,9.36187923 3.3620464,11.2141598 1.7292936,14.0905018 C-1.6403037,19.9553094 0.872767544,28.5738707 4.10109752,33.3144532 C5.71600603,35.6376525 7.60303999,38.2284533 10.0729875,38.1372595 C12.4894022,38.0385908 13.392026,36.58846 16.3080809,36.58846 C19.1973693,36.58846 20.0449732,38.1372595 22.5639925,38.0774603 C25.1573631,38.0385908 26.7901159,35.7467861 28.3485174,33.402657 C30.2147331,30.7445821 30.9641934,28.1208917 30.9939339,27.9863435 C30.9344529,27.9669087 25.9588692,26.0578189 25.9083104,20.2827101" id="Fill-2"></path>
                                                <path d="M21.1498323,6.1132871 C22.4494916,4.47927366 23.3387322,2.25623799 23.0918862,0.000312761615 C21.2108003,0.0840316569 18.8583277,1.3084205 17.5036485,2.90655441 C16.3051068,4.31482583 15.2344492,6.62307537 15.5110358,8.79378673 C17.6240974,8.95225464 19.7936661,7.72188587 21.1498323,6.1132871" id="Fill-3"></path>
                                            </g>
                                        </g>
                                    </g>
                                </g>
                            </g>
                        </g>
                    </g>
                </g>
            </g>
        </g>
    </g>
</svg>