<?xml version="1.0" encoding="UTF-8" standalone="no"?>
<svg width="229px" height="52px" viewBox="0 0 229 52" version="1.1" xmlns="http://www.w3.org/2000/svg" xmlns:xlink="http://www.w3.org/1999/xlink">
    <!-- Generator: Sketch 47.1 (45422) - http://www.bohemiancoding.com/sketch -->
    <title>Page 1 Copy</title>
    <desc>Created with Sketch.</desc>
    <defs>
        <polygon id="path-1" points="9.46523518 9.43339435 0.0417714202 9.43339435 0.0417714202 0.0180363843 9.46523518 0.0180363843 9.46523518 9.43339435"></polygon>
        <polygon id="path-3" points="9.48016502 9.43339435 0.0567012566 9.43339435 0.0567012566 0.0180363843 9.48016502 0.0180363843 9.48016502 9.43339435"></polygon>
        <polygon id="path-5" points="228.99284 18.8634206 228.99284 51.8172365 0 51.8172365 0 0.032219692 228.99284 0.032219692 228.99284 18.8634206 209.076722 18.8634206 209.076722 0.0322166583 228.992863 0.0322166583 228.992863 18.8634206"></polygon>
        <polygon id="path-7" points="0 0.00345448244 0 19.5240704 201.476689 19.5240704 201.476689 0.00345448244 0 0.00345448244"></polygon>
    </defs>
    <g id="Prueba-Noe-Text" stroke="none" stroke-width="1" fill="none" fill-rule="evenodd">
        <g id="e03_Redieño-Copy" transform="translate(-83.000000, -20.000000)">
            <g id="Page-1-Copy" transform="translate(83.000000, 20.000000)">
                <polygon id="Fill-1" fill="#67BAAF" points="17 43 17 52 15.7806311 52 15.7806311 47.7099974 10.2341828 47.7099974 10.2341828 52 9 52 9 43 10.2341828 43 10.2341828 46.6600105 15.7806311 46.6600105 15.7806311 43"></polygon>
                <g id="Group-36">
                    <g id="Group-4" transform="translate(21.347458, 42.383842)">
                        <mask id="mask-2" fill="white">
                            <use xlink:href="#path-1"></use>
                        </mask>
                        <g id="Clip-3"></g>
                        <path d="M7.2542007,1.95560244 C6.65948328,1.38036468 5.82084272,1.07763244 4.75346984,1.07763244 C3.67083922,1.07763244 2.81694091,1.38036468 2.23748124,1.98582916 C1.627573,2.59136007 1.30736113,3.5147698 1.30736113,4.72569876 C1.30736113,5.86096126 1.58179977,6.73893126 2.13074395,7.35960875 C2.71020362,8.0255931 3.60987516,8.37376507 4.75346984,8.37376507 C5.91232227,8.37376507 6.79673606,8.0255931 7.39145348,7.34439574 C7.90988217,6.72378468 8.19957855,5.84588112 8.19957855,4.72569876 C8.19957855,3.5147698 7.86410894,2.57621349 7.2542007,1.95560244 M1.29210339,1.28955165 C2.10022846,0.47216796 3.27440555,0.0180363843 4.75346984,0.0180363843 C6.14105459,0.0180363843 7.29997393,0.426728229 8.10809901,1.18359204 C8.97725506,1.98582916 9.46523518,3.18167797 9.46523518,4.72569876 C9.46523518,6.10317363 9.08399234,7.19306284 8.38260456,7.99529995 C7.57441257,8.93385626 6.33933834,9.43342756 4.75346984,9.43342756 C3.30485412,9.43342756 2.11548621,8.99437613 1.30736113,8.19213902 C0.483978317,7.38983547 0.0417714202,6.20913323 0.0417714202,4.72569876 C0.0417714202,3.272491 0.483978317,2.0918552 1.29210339,1.28955165" id="Fill-2" fill="#67BAAF" mask="url(#mask-2)"></path>
                    </g>
                    <polygon id="Fill-5" fill="#67BAAF" points="34.1371545 42.5683448 42.9812255 42.5683448 42.9812255 43.6279408 39.1843225 43.6279408 39.1843225 51.6507106 37.9187328 51.6507106 37.9187328 43.6279408 34.1371545 43.6279408"></polygon>
                    <polygon id="Fill-7" fill="#67BAAF" points="47.0800846 42.5683448 54.3230293 42.5683448 54.3230293 43.6279408 48.3456743 43.6279408 48.3456743 46.3224371 53.6826056 46.3224371 53.6826056 47.3819668 48.3456743 47.3819668 48.3456743 50.5911145 54.5365039 50.5911145 54.5365039 51.6507106 47.0800846 51.6507106"></polygon>
                    <polygon id="Fill-9" fill="#67BAAF" points="65.7746354 50.5910946 65.7746354 51.6506906 58.7299075 51.6506906 58.7299075 42.5683249 59.9954972 42.5683249 59.9954972 50.5910946"></polygon>
                    <path d="M70.5841172,43.204129 C71.3312783,42.6440378 72.5053884,42.4018919 74.0302259,42.4018919 C75.402553,42.4018919 76.33274,42.5835179 77.4915924,43.0376495 L77.1256073,43.9761394 C76.1040077,43.643114 75.1738206,43.4766345 74.0607414,43.4766345 C72.9170798,43.4766345 72.0174083,43.6279674 71.5142373,43.9610592 C71.1787677,44.172912 71.0110664,44.4454175 71.0110664,44.8238162 C71.0110664,45.1568416 71.1330614,45.4142006 71.3922423,45.58068 C71.6972634,45.8077458 72.1699188,45.928852 72.779894,46.019665 L74.9450883,46.3677706 C76.149714,46.5646096 77.0341278,46.8067556 77.5830719,47.3214735 C77.9948303,47.7301653 78.2083049,48.2448168 78.2083049,49.001747 C78.2083049,49.8796506 77.8423198,50.5607815 77.1104165,51.0301261 C76.3022245,51.5447775 75.1738206,51.8172166 73.527055,51.8172166 C72.1546611,51.8172166 70.9805509,51.6052974 69.7759252,51.181459 L70.1113949,50.212676 C71.1940255,50.5607815 72.4748729,50.7273274 73.4965395,50.7273274 C74.6553919,50.7273274 75.6160275,50.6062212 76.271709,50.1975294 C76.6987251,49.9401704 76.9426482,49.5466252 76.9426482,48.9713874 C76.9426482,47.9269379 75.9820126,47.7301653 74.7926447,47.5485392 L72.4291666,47.1852207 C71.5752683,47.0641145 70.9348446,46.8371152 70.47738,46.4888768 C70.0199153,46.1407712 69.7454767,45.6261198 69.7454767,44.9449224 C69.7454767,44.172912 70.0504308,43.5977407 70.5841172,43.204129" id="Fill-11" fill="#67BAAF"></path>
                    <path d="M94.4177038,50.5607948 C94.7988797,50.424542 95.1496071,50.2126892 95.4393704,49.9251036 L91.3375133,46.7764757 C90.9715282,46.9884614 90.7275381,47.2609004 90.5599037,47.624219 C90.4073262,47.9269512 90.3463622,48.2599766 90.3463622,48.6686685 C90.3463622,49.1984665 90.5293882,49.6677446 90.8953064,50.0309968 C91.3375133,50.4851283 92.0694165,50.772714 93.0910831,50.772714 C93.5942541,50.772714 94.0212032,50.7121941 94.4177038,50.5607948 M89.9346708,50.7576339 C89.4009843,50.242916 89.111221,49.5163453 89.111221,48.683815 C89.111221,48.154017 89.2180252,47.6544457 89.4467576,47.2306073 C89.6906807,46.746249 90.0566658,46.3677839 90.544579,46.0953448 C90.102439,45.6412132 89.9042222,45.1720015 89.9042222,44.6119103 C89.9042222,43.8398999 90.2853981,43.3100354 90.8343423,42.9619299 C91.4442506,42.5683182 92.2981489,42.4019052 93.1062739,42.4019052 C94.4481524,42.4019052 95.6681027,42.6894908 96.4762278,43.2949553 L95.9577991,44.0972588 C95.2258289,43.688567 94.21942,43.4462882 93.1062739,43.4462882 C92.5878452,43.4462882 91.9931947,43.5371012 91.5967611,43.7944602 C91.3222555,43.9761527 91.1392964,44.2334452 91.1392964,44.5816171 C91.1392964,44.9752288 91.29174,45.2930412 91.7187561,45.6261331 L96.0949849,48.9714007 C96.2322377,48.6989616 96.338975,48.3961629 96.4304545,48.0631376 C96.5219341,47.6998854 96.5828981,47.276047 96.5828981,46.8219154 L95.1648648,46.6856627 L95.1648648,45.8834256 L98.9464431,45.8834256 L98.9464431,46.7159558 L97.7418175,46.837062 C97.7265597,47.3819402 97.6655957,47.8815115 97.5436006,48.3659362 C97.4368634,48.8351479 97.2539043,49.2741329 97.0251719,49.6828248 L97.8485548,50.3185824 C98.1840244,50.5760078 98.3974989,50.681901 98.9006699,50.7424208 L99.0988867,50.7878606 L98.9921494,51.650684 L98.7329016,51.650684 C97.9400343,51.650684 97.5587915,51.5295778 97.086136,51.1814723 L96.338975,50.6213811 C95.9729899,50.9694866 95.5612985,51.2570723 95.0733853,51.4690579 C94.5244411,51.6961237 93.8687596,51.8172299 93.1215986,51.8172299 C91.7187561,51.8172299 90.60561,51.4387648 89.9346708,50.7576339" id="Fill-13" fill="#67BAAF"></path>
                    <path d="M116.268828,44.2486183 C115.918167,43.8550066 115.384414,43.6279408 114.683026,43.6279408 L111.435134,43.6279408 L111.435134,47.7301387 L114.652511,47.7301387 C115.277677,47.7301387 115.826688,47.5333661 116.192606,47.1549674 C116.543333,46.8067954 116.741483,46.3072241 116.741483,45.6715329 C116.741483,45.0962952 116.589039,44.5967239 116.268828,44.2486183 L116.268828,44.2486183 Z M114.683026,42.5683448 C115.750399,42.5683448 116.604297,42.9014366 117.214272,43.5069011 C117.717376,44.0366991 118.007207,44.7632698 118.007207,45.6866131 C118.007207,46.47377 117.702186,47.2154873 117.168499,47.7755785 C116.83303,48.1237504 116.375632,48.4264827 115.857136,48.5930286 L117.793665,51.6507106 L116.390823,51.6507106 L114.652511,48.7897348 L111.435134,48.7897348 L111.435134,51.6507106 L110.169477,51.6507106 L110.169477,42.5683448 L114.683026,42.5683448 Z" id="Fill-15" fill="#67BAAF"></path>
                    <polygon id="Fill-17" fill="#67BAAF" points="122.421868 42.5683448 129.664812 42.5683448 129.664812 43.6279408 123.687457 43.6279408 123.687457 46.3224371 129.024389 46.3224371 129.024389 47.3819668 123.687457 47.3819668 123.687457 50.5911145 129.878287 50.5911145 129.878287 51.6507106 122.421868 51.6507106"></polygon>
                    <path d="M134.722781,43.204129 C135.469942,42.6440378 136.644052,42.4018919 138.16889,42.4018919 C139.541284,42.4018919 140.471404,42.5835179 141.630256,43.0376495 L141.264338,43.9761394 C140.242672,43.643114 139.312552,43.4766345 138.199405,43.4766345 C137.055744,43.4766345 136.156139,43.6279674 135.652901,43.9610592 C135.317499,44.172912 135.14973,44.4454175 135.14973,44.8238162 C135.14973,45.1568416 135.271725,45.4142006 135.530906,45.58068 C135.835927,45.8077458 136.308583,45.928852 136.918558,46.019665 L139.083819,46.3677706 C140.288445,46.5646096 141.172859,46.8067556 141.721736,47.3214735 C142.133427,47.7301653 142.346969,48.2448168 142.346969,49.001747 C142.346969,49.8796506 141.980984,50.5607815 141.249014,51.0301261 C140.440888,51.5447775 139.312552,51.8172166 137.665652,51.8172166 C136.293392,51.8172166 135.119215,51.6052974 133.914589,51.181459 L134.250126,50.212676 C135.332689,50.5607815 136.613604,50.7273274 137.635203,50.7273274 C138.794056,50.7273274 139.754691,50.6062212 140.410373,50.1975294 C140.837322,49.9401704 141.081312,49.5466252 141.081312,48.9713874 C141.081312,47.9269379 140.120677,47.7301653 138.931309,47.5485392 L136.567831,47.1852207 C135.713932,47.0641145 135.073442,46.8371152 134.616044,46.4888768 C134.158579,46.1407712 133.884141,45.6261198 133.884141,44.9449224 C133.884141,44.172912 134.189028,43.5977407 134.722781,43.204129" id="Fill-19" fill="#67BAAF"></path>
                    <g id="Group-23" transform="translate(146.220047, 42.383842)">
                        <mask id="mask-4" fill="white">
                            <use xlink:href="#path-3"></use>
                        </mask>
                        <g id="Clip-22"></g>
                        <path d="M7.26913054,1.95560244 C6.67441312,1.38036468 5.83577256,1.07763244 4.76839968,1.07763244 C3.68576905,1.07763244 2.83187075,1.38036468 2.25241108,1.98582916 C1.64250283,2.59136007 1.32229097,3.5147698 1.32229097,4.72569876 C1.32229097,5.86096126 1.5967296,6.73893126 2.14567379,7.35960875 C2.72513346,8.0255931 3.624805,8.37376507 4.76839968,8.37376507 C5.9272521,8.37376507 6.8116659,8.0255931 7.40638331,7.34439574 C7.92481201,6.72378468 8.21450839,5.84588112 8.21450839,4.72569876 C8.21450839,3.5147698 7.87903878,2.57621349 7.26913054,1.95560244 M1.30703323,1.28955165 C2.1151583,0.47216796 3.28926847,0.0180363843 4.76839968,0.0180363843 C6.15598442,0.0180363843 7.31490377,0.426728229 8.12302884,1.18359204 C8.99218489,1.98582916 9.48016502,3.18167797 9.48016502,4.72569876 C9.48016502,6.10317363 9.09892218,7.19306284 8.39746748,7.99529995 C7.5893424,8.93385626 6.35420126,9.43342756 4.76839968,9.43342756 C3.31978396,9.43342756 2.13041604,8.99437613 1.32229097,8.19213902 C0.498841233,7.38983547 0.0567012566,6.20913323 0.0567012566,4.72569876 C0.0567012566,3.272491 0.498841233,2.0918552 1.30703323,1.28955165" id="Fill-21" fill="#67BAAF" mask="url(#mask-4)"></path>
                    </g>
                    <path d="M166.208207,44.2486183 C165.857546,43.8550066 165.323793,43.6279408 164.622405,43.6279408 L161.374513,43.6279408 L161.374513,47.7301387 L164.59189,47.7301387 C165.217056,47.7301387 165.766067,47.5333661 166.131985,47.1549674 C166.482712,46.8067954 166.680862,46.3072241 166.680862,45.6715329 C166.680862,45.0962952 166.528419,44.5967239 166.208207,44.2486183 L166.208207,44.2486183 Z M164.622405,42.5683448 C165.689778,42.5683448 166.543676,42.9014366 167.153651,43.5069011 C167.656755,44.0366991 167.946586,44.7632698 167.946586,45.6866131 C167.946586,46.47377 167.641565,47.2154873 167.107878,47.7755785 C166.772409,48.1237504 166.315011,48.4264827 165.796515,48.5930286 L167.733044,51.6507106 L166.330202,51.6507106 L164.59189,48.7897348 L161.374513,48.7897348 L161.374513,51.6507106 L160.108857,51.6507106 L160.108857,42.5683448 L164.622405,42.5683448 Z" id="Fill-24" fill="#67BAAF"></path>
                    <polygon id="Fill-26" fill="#67BAAF" points="171.615591 42.5683448 180.459595 42.5683448 180.459595 43.6279408 176.662759 43.6279408 176.662759 51.6507106 175.39717 51.6507106 175.39717 43.6279408 171.615591 43.6279408"></polygon>
                    <path d="M185.075384,43.204129 C185.822545,42.6440378 186.996655,42.4018919 188.521493,42.4018919 C189.893887,42.4018919 190.824007,42.5835179 191.982859,43.0376495 L191.616941,43.9761394 C190.595275,43.643114 189.665155,43.4766345 188.552008,43.4766345 C187.408347,43.4766345 186.508742,43.6279674 186.005504,43.9610592 C185.670102,44.172912 185.502333,44.4454175 185.502333,44.8238162 C185.502333,45.1568416 185.624328,45.4142006 185.883509,45.58068 C186.18853,45.8077458 186.661186,45.928852 187.271161,46.019665 L189.436422,46.3677706 C190.641048,46.5646096 191.525462,46.8067556 192.074339,47.3214735 C192.48603,47.7301653 192.699572,48.2448168 192.699572,49.001747 C192.699572,49.8796506 192.333587,50.5607815 191.601617,51.0301261 C190.793491,51.5447775 189.665155,51.8172166 188.018322,51.8172166 C186.645995,51.8172166 185.471818,51.6052974 184.267192,51.181459 L184.602729,50.212676 C185.685292,50.5607815 186.966207,50.7273274 187.987806,50.7273274 C189.146659,50.7273274 190.107294,50.6062212 190.762976,50.1975294 C191.189925,49.9401704 191.433982,49.5466252 191.433982,48.9713874 C191.433982,47.9269379 190.47328,47.7301653 189.283912,47.5485392 L186.920434,47.1852207 C186.066535,47.0641145 185.426045,46.8371152 184.968647,46.4888768 C184.511182,46.1407712 184.236744,45.6261198 184.236744,44.9449224 C184.236744,44.172912 184.541631,43.5977407 185.075384,43.204129" id="Fill-28" fill="#67BAAF"></path>
                    <g id="Group-32">
                        <mask id="mask-6" fill="white">
                            <use xlink:href="#path-5"></use>
                        </mask>
                        <g id="Clip-31"></g>
                        <path d="M213.03352,18.8634206 C213.020939,18.8634206 213.008225,18.8624241 212.995376,18.8602983 C212.884958,18.8419629 212.803784,18.747629 212.802914,18.6364876 C212.766376,14.0698612 215.279152,11.0184903 215.955713,10.2804268 C213.146214,7.63582119 209.340544,7.51557863 209.301731,7.51464858 C209.189773,7.51199129 209.095952,7.42981446 209.079289,7.31993535 C209.062693,7.2099898 209.128006,7.10409663 209.234275,7.06888748 C213.597522,5.62331945 217.297458,7.05254512 218.213993,7.4633628 C219.876217,3.99918124 218.818548,0.363404909 218.807439,0.326402088 C218.775451,0.219844591 218.825306,0.105913103 218.925352,0.0563545664 C219.025598,0.00666316516 219.147124,0.0356941041 219.213643,0.125045621 C221.947054,3.7982898 221.720999,7.73307816 221.610648,8.72484678 C225.442617,9.22395306 228.599431,7.10170506 228.631552,7.07978239 C228.723768,7.01673808 228.848239,7.02849661 228.926736,7.10775041 C229.005166,7.18700421 229.015003,7.31070125 228.949957,7.40111569 C226.275569,11.116943 222.436038,12.1193408 221.451713,12.3216938 C222.157919,16.0941879 225.166371,18.4184567 225.197355,18.4419073 C225.286158,18.509469 225.313461,18.6306416 225.261732,18.7292936 C225.210137,18.8278128 225.094834,18.8754448 224.987896,18.8418301 C220.601562,17.4651524 218.454704,14.1498457 217.956753,13.2830364 C214.560767,15.1156393 213.263725,18.6742212 213.250809,18.7106926 C213.217818,18.8032993 213.129818,18.8634206 213.03352,18.8634206" id="Fill-30" fill="#67BAAF"></path>
                    </g>
                    <g id="Group-35" transform="translate(0.000000, 9.101233)">
                        <mask id="mask-8" fill="white">
                            <use xlink:href="#path-7"></use>
                        </mask>
                        <g id="Clip-34"></g>
                        <path d="M117.01283,1.66672134 C118.561357,0.50561665 120.99577,0.00345448244 124.157269,0.00345448244 C127.002771,0.00345448244 128.931002,0.379993068 131.333896,1.32140596 L131.333896,3.50497103 C128.916815,2.65995148 126.528041,2.23166209 124.220173,2.23166209 C121.849401,2.23166209 119.984142,2.54535566 118.940994,3.23598642 C118.245361,3.67530358 117.897913,4.24024433 117.897913,5.02487687 C117.897913,5.7150426 118.150268,6.24876013 118.687903,6.59407551 C119.320698,7.06461588 120.300138,7.31586304 121.564857,7.50393304 L126.054047,8.22578701 C128.551298,8.63388096 130.385172,9.13597669 131.523346,10.2030796 C132.377044,11.0504907 132.819585,12.1175936 132.819585,13.6864601 C132.819585,15.5069724 132.061048,16.9193242 130.54317,17.8920268 C128.868097,18.9591297 126.528041,19.5240704 123.114188,19.5240704 C120.268685,19.5240704 118.033961,19.0201146 115.536643,18.1410817 L115.565553,15.9248319 C117.905676,16.756565 120.932866,17.264241 123.050547,17.264241 C125.453508,17.264241 127.445312,17.0133924 128.804456,16.1659813 C129.689539,15.6325959 130.195722,14.816408 130.195722,13.6240137 C130.195722,11.4582525 128.20385,11.0504907 125.738051,10.67362 L120.837772,9.92060923 C119.067606,9.66936207 117.739915,9.1988217 116.791191,8.47703417 C115.8424,7.75518021 115.274049,6.68814373 115.274049,5.27572544 C115.274049,3.67530358 115.906108,2.48257709 117.01283,1.66672134 L117.01283,1.66672134 Z M197.87265,3.83215037 C197.145565,3.01629463 196.039579,2.54535566 194.585342,2.54535566 L187.22522,2.54535566 L187.22522,11.0504907 L194.521701,11.0504907 C195.81794,11.0504907 196.956114,10.6423968 197.714652,9.85783066 C198.441737,9.13597669 198.852826,8.10049558 198.852826,6.78214551 C198.852826,5.58981761 198.53683,4.5539379 197.87265,3.83215037 L197.87265,3.83215037 Z M194.585342,0.348371267 C196.798116,0.348371267 198.568282,1.03893559 199.833069,2.29450709 C200.87615,3.39283321 201.476689,4.89925328 201.476689,6.81376731 C201.476689,8.44541237 200.844698,9.98345424 199.737976,11.1445589 C199.043079,11.8663465 198.094288,12.4941322 197.019755,12.8394476 L201.034148,19.1788215 L198.125741,19.1788215 L194.521701,13.247143 L187.22522,13.247143 L187.22522,19.1788215 L184.601424,19.1788215 L184.601424,0.348371267 L194.585342,0.348371267 Z M163.23195,13.309988 L172.796815,13.309988 L168.117439,2.76504746 L167.911259,2.76504746 L163.23195,13.309988 Z M169.635317,0.348371267 L178.233926,19.1788215 L175.452064,19.1788215 L173.776255,15.5069724 L162.252509,15.5069724 L160.576634,19.1788215 L157.889129,19.1788215 L166.488541,0.348371267 L169.635317,0.348371267 Z M137.4212,0.348371267 L156.192977,0.348371267 L156.192977,2.54535566 L148.103629,2.54535566 L148.103629,19.1788215 L145.479765,19.1788215 L145.479765,2.54535566 L137.4212,2.54535566 L137.4212,0.348371267 Z M103.608367,4.02055253 C102.375099,2.82782604 100.228107,2.20010672 98.0153326,2.20010672 C95.7711728,2.20010672 93.5919922,2.82782604 92.3908463,4.08339754 C91.1261266,5.33857044 90.4626824,7.25308447 90.4626824,9.76376245 C90.4626824,12.1175936 91.0317695,13.9377073 92.1692075,15.224502 C93.3710895,16.6052985 95.6446272,17.327086 98.0153326,17.327086 C100.418293,17.327086 102.659643,16.6052985 103.892977,15.1928802 C104.96751,13.9064841 105.568786,12.0860383 105.568786,9.76376245 C105.568786,7.25308447 104.873153,5.30734724 103.608367,4.02055253 L103.608367,4.02055253 Z M90.4304939,2.63942388 C92.1063028,0.944933811 94.9489945,0.00345448244 98.0153326,0.00345448244 C100.892287,0.00345448244 103.70346,0.850865597 105.378599,2.41973208 C107.181021,4.08339754 108.192649,6.56245371 108.192649,9.76376245 C108.192649,12.6197558 107.401923,14.8791866 105.947686,16.5424535 C104.272614,18.4881907 101.303376,19.5240704 98.0153326,19.5240704 C95.0118323,19.5240704 92.1377552,18.6138143 90.4626824,16.9505474 C88.7553542,15.2872806 87.8388189,12.8394476 87.8388189,9.76376245 C87.8388189,6.7509223 88.7553542,4.3030229 90.4304939,2.63942388 L90.4304939,2.63942388 Z M76.8185117,3.83215037 C76.0914267,3.01629463 74.9853741,2.54535566 73.531204,2.54535566 L66.1710825,2.54535566 L66.1710825,11.0504907 L73.4675632,11.0504907 C74.7637353,11.0504907 75.9019764,10.6423968 76.6605138,9.85783066 C77.3875988,9.13597669 77.798688,8.10049558 77.798688,6.78214551 C77.798688,5.58981761 77.4826921,4.5539379 76.8185117,3.83215037 L76.8185117,3.83215037 Z M73.531204,0.348371267 C75.7439784,0.348371267 77.5141444,1.03893559 78.7788642,2.29450709 C79.822012,3.39283321 80.4225515,4.89925328 80.4225515,6.81376731 C80.4225515,8.44541237 79.7905597,9.98345424 78.683771,11.1445589 C77.9888744,11.8663465 77.0401506,12.4941322 75.9656172,12.8394476 L79.98001,19.1788215 L77.0716029,19.1788215 L73.4675632,13.247143 L66.1710825,13.247143 L66.1710825,19.1788215 L63.5472189,19.1788215 L63.5472189,0.348371267 L73.531204,0.348371267 Z M38.8061178,0.348371267 L54.8571307,0.348371267 L54.8571307,2.54535566 L41.4299814,2.54535566 L41.4299814,8.13171879 L53.5294393,8.13171879 L52.9034703,10.3287032 L41.4299814,10.3287032 L41.4299814,16.9817706 L55.2996722,16.9817706 L55.2996722,19.1788215 L38.8061178,19.1788215 L38.8061178,0.348371267 Z M27.0030483,11.2701825 C26.3396041,10.48555 25.3279086,10.077456 24.2211868,10.077456 L15.0937768,10.077456 L15.0937768,17.0446156 L24.0946412,17.0446156 C25.2328154,17.0446156 26.2129916,16.6680771 26.8450503,16.0091345 C27.4455898,15.412572 27.7937742,14.565493 27.7937742,13.5612351 C27.7937742,12.6197558 27.5092306,11.8351233 27.0030483,11.2701825 L27.0030483,11.2701825 Z M25.8019025,3.2671432 C25.2642677,2.79660283 24.474278,2.48257709 23.4626494,2.48257709 L15.0937768,2.48257709 L15.0937768,7.974872 L23.9680956,7.974872 C24.7588215,7.974872 25.4544542,7.62955662 25.928515,7.09623768 C26.3710565,6.59407551 26.6241476,5.93473439 26.6241476,5.21294686 C26.6241476,4.45986969 26.3396041,3.76930536 25.8019025,3.2671432 L25.8019025,3.2671432 Z M12.4699133,19.1788215 L12.4699133,0.348371267 L23.6835521,0.348371267 C25.4222657,0.348371267 26.9401435,0.882088804 27.9517721,1.91756991 C28.7417619,2.70220245 29.2165588,3.80092717 29.2165588,5.08765544 C29.2165588,5.90351119 28.9948531,6.65652193 28.6159524,7.28430768 C28.267768,7.84924842 27.8252265,8.28856558 27.2561395,8.66510417 L27.2561395,8.82228312 C28.1412224,9.1988217 28.8683075,9.79498565 29.3745568,10.5167732 C30.0065486,11.3954739 30.354733,12.4312872 30.354733,13.5924583 C30.354733,15.161657 29.6905527,16.5424535 28.6159524,17.5155546 C27.4777783,18.5510357 25.8656102,19.1788215 24.1897344,19.1788215 L12.4699133,19.1788215 Z M-1.3383986e-05,19.1788215 L2.62385015,19.1788215 L2.62385015,0.348371267 L-1.3383986e-05,0.348371267 L-1.3383986e-05,19.1788215 Z" id="Fill-33" fill="#67BAAF" mask="url(#mask-8)"></path>
                    </g>
                </g>
            </g>
        </g>
    </g>
</svg>